<svg xmlns="http://www.w3.org/2000/svg" width="170" height="170" viewBox="0 0 170 170">
  <defs>
    <style>
      .cls-1 {
        fill: #020202;
      }
    </style>
  </defs>
  <g id="chili">
    <g>
      <path class="cls-1" d="M76.72,151.69c-.52-3.37.66-6.87,2.65-9.89a27.47,27.47,0,0,1,8.41-7.89c7.72-4.81,16.85-6.72,24.74-11.21a52.49,52.49,0,0,0,10.07-7.8,93.49,93.49,0,0,1,8.59-7.82,23.21,23.21,0,0,1,11.23-4.36c4.45-.65,8.5-1.64,12.08-4.49,5.87-4.68,8.38-12.51,9.72-19.61.36-2,.64-3.91.9-5.88.29-2.25.63-4.62-.11-6.83-1.6-4.74-6.86-6-11.24-6.77-8-1.47-16.55-1-24.4-2.48a27.71,27.71,0,0,1-10.53-3.85c-3.13-2.05-5.47-5.24-8.08-8-3.12-3.27-6.69-5.64-11.25-6.18-2.37-.28-4.74-.06-7.12-.12a10.25,10.25,0,0,1-5.31-1.3c-2.71-1.67-4.3-4.87-4.93-8.22a17.52,17.52,0,0,1,.07-5.63,37.09,37.09,0,0,1,2.07-6.93c.87-2.16,1.92-4.25,2.94-6.34A3,3,0,0,0,87,6.77a3,3,0,0,0-3.16-1.08,31.7,31.7,0,0,0-16,12.81,30.4,30.4,0,0,0-4,9.39c-.92,4-.79,8.16-1.06,12.26a21.19,21.19,0,0,1-3.16,10.1,37.82,37.82,0,0,1-7,7.92,86,86,0,0,1-18.5,12.55,88.37,88.37,0,0,1-24,8.07,3,3,0,0,0,1.59,5.79,94.34,94.34,0,0,0,41.7-19.21c5.85-4.69,11.42-10.24,14-17.46,1.41-4,1.42-8.26,1.59-12.43a28.46,28.46,0,0,1,2-10.15A25.62,25.62,0,0,1,85.43,11.48L82,7.07c-4.15,8.46-8.4,18.05-4.49,27.4a16,16,0,0,0,8,8.7,18.34,18.34,0,0,0,7.51,1.36c2.29,0,4.7-.28,7,.23,3.52.8,6,3.65,8.45,6.45,2.72,3.06,5.55,5.94,9.21,7.87,7.5,4,16.19,4.25,24.47,4.79A75.46,75.46,0,0,1,154,65.3c1.59.35,3.94.68,5,1.89s.36,3.72.17,5.22A68.36,68.36,0,0,1,157,82.9a28.05,28.05,0,0,1-1.83,4.76,20.75,20.75,0,0,1-2.58,4.06,12.25,12.25,0,0,1-3.57,3,15.83,15.83,0,0,1-5.54,1.78,66,66,0,0,0-7.28,1.3,25.58,25.58,0,0,0-5.81,2.57c-7,4.17-11.78,11.14-18.4,15.57-7.72,5.17-17,7.2-25.12,11.54C79.62,131.37,72.4,138.19,71,146.64a19.74,19.74,0,0,0,0,6.64c.25,1.61,2.25,2.49,3.69,2.1a3.07,3.07,0,0,0,2.09-3.69Z"/>
      <path class="cls-1" d="M65.22,63.22c-9.8,11.4-7.63,29.9,4.37,38.86,1.3,1,3.36.21,4.11-1.08a3.07,3.07,0,0,0-1.08-4.1,18.85,18.85,0,0,1-5.12-6.18A17.26,17.26,0,0,1,66,87c-.22-.72-.4-1.45-.55-2.19-.08-.37-.14-.74-.21-1.11,0-.16,0-.32-.07-.48,0,.26,0,.21,0-.17a26.14,26.14,0,0,1-.07-4.51c0-.32.05-.65.08-1s.06-.42,0-.16c0-.21.07-.42.11-.63.13-.74.29-1.47.49-2.19a18.59,18.59,0,0,1,3.7-7.11,3.09,3.09,0,0,0,0-4.24,3,3,0,0,0-4.25,0Z"/>
      <path class="cls-1" d="M74.77,101.05A40.53,40.53,0,0,0,85.39,64.43,3,3,0,0,0,79.6,66a34.3,34.3,0,0,1-9.07,30.79c-2.71,2.75,1.53,7,4.24,4.24Z"/>
    </g>
  </g>
</svg>
