<svg xmlns="http://www.w3.org/2000/svg" width="170" height="170" viewBox="0 0 170 170">
  <defs>
    <style>
      .cls-1 {
        fill: #020202;
      }
    </style>
  </defs>
  <g id="chili">
    <g>
      <path class="cls-1" d="M30.78,144.05c5.87-4.26,10.14-10,14.29-15.88s8.43-11.92,11.41-18.58,4.3-13.8,5.05-21.11c.69-6.78.95-13.65,2.55-20.3A31.67,31.67,0,0,1,86.77,44a28.42,28.42,0,0,1,16.88.12,14.67,14.67,0,0,1,7,4.65c1.86,2.39,2.72,5.4,3.7,8.2a28.54,28.54,0,0,0,5.27,9.93c2.5,2.82,5.73,4.91,8.81,7,2.68,1.82,5.39,3.71,7.23,6.43,1.69,2.49,2.82,5.46,1.62,8l3.39-1.38c-5-1.3-10.54-2.63-15.58-.76s-8.22,5.76-8.51,11.12c-.14,2.45.4,4.85.55,7.29a9.28,9.28,0,0,1-.64,4.78,2.76,2.76,0,0,1-1.27,1.32c.08,0-.49.17-.47.16.34-.06-.27,0-.35,0a3.27,3.27,0,0,1-.44,0c.25,0,.26,0,.05,0a3.83,3.83,0,0,1-1.86-.8,11.34,11.34,0,0,1-1.47-1.47c-.11-.17-.62-1.06-.54-.88a5.74,5.74,0,0,1-.44-1.57,9.82,9.82,0,0,1,.27-3.41,30.73,30.73,0,0,1,3.38-7.7c1.88-3.38-3.3-6.41-5.18-3-2.71,4.9-5.58,10.6-4.12,16.37,1.14,4.5,5.47,8.4,10.21,8.5,5.46.12,8.38-4.85,8.84-9.68a41,41,0,0,0-.46-7.25c-.17-2.08-.15-4.43,1.16-6a8.58,8.58,0,0,1,5.78-2.66,30.41,30.41,0,0,1,9.5,1.43,3,3,0,0,0,3.38-1.38c3.2-6.76-.41-14.11-5.68-18.68C132,68.45,125.3,65.85,122.1,60.05c-1.55-2.83-2.31-6-3.5-9a20.78,20.78,0,0,0-5.89-8.74c-5.29-4.31-12.42-5.88-19.14-5.54-12.75.65-25.14,8-31.31,19.28-7.15,13-5,28.32-8.29,42.36-1.69,7.29-5.27,13.75-9.39,19.94-4,6-8,12.21-13.1,17.28a31.76,31.76,0,0,1-3.73,3.23A3.1,3.1,0,0,0,26.67,143a3,3,0,0,0,4.11,1.07Z"/>
      <path class="cls-1" d="M108.6,115.43c-4.14,11.11-2.94,23.52.77,34.57a3.07,3.07,0,0,0,3.69,2.09,3,3,0,0,0,2.1-3.69c-3.41-10.14-4.58-21.17-.77-31.37a3,3,0,0,0-2.1-3.69,3.06,3.06,0,0,0-3.69,2.09Z"/>
      <path class="cls-1" d="M57.45,72.69A18.3,18.3,0,0,1,45.69,59.08a12.3,12.3,0,0,1,1.29-8,13.93,13.93,0,0,1,6.1-5.83,10.63,10.63,0,0,1,8.66-.61,3,3,0,0,0,3.15-1.08,3.11,3.11,0,0,0,.24-3.33A9.77,9.77,0,0,1,68.37,29a9.61,9.61,0,0,1,12.21,1.51,3,3,0,0,0,5-1.32c1.13-3.56,4.38-7,8-7.15a6.42,6.42,0,0,1,4.75,1.77,6,6,0,0,1,1.56,2.16,5.61,5.61,0,0,1,.33,2c-.37,2.56,1.92,4.69,4.41,3.39s5.36-2.43,8.13-2a6.48,6.48,0,0,1,4.92,4c2.43,5.53-.63,11.65-3.23,16.78a3.08,3.08,0,0,0,1.08,4.11,3,3,0,0,0,4.1-1.08c3.63-7.17,7-15.28,3.1-23.08A12.19,12.19,0,0,0,114,23.52c-4.33-.7-8.55.65-12.36,2.64L106,29.55a11.21,11.21,0,0,0-3-9.52,12.67,12.67,0,0,0-8.78-4c-6.85-.21-12.52,5.36-14.48,11.56l5-1.32C79.9,21,71,19.8,65.06,24A15.76,15.76,0,0,0,60,43.27l3.38-4.41c-7.78-2.78-16.31,1.4-20.75,7.93-4.85,7.12-3.5,16.56,1.56,23.17a25.15,25.15,0,0,0,11.72,8.52,3,3,0,1,0,1.59-5.79Z"/>
    </g>
  </g>
</svg>
