<svg xmlns="http://www.w3.org/2000/svg" width="170" height="170" viewBox="0 0 170 170">
  <defs>
    <style>
      .cls-1 {
        fill: #c91212;
      }

      .cls-2 {
        fill: #d34040;
      }

      .cls-3, .cls-4 {
        fill: #093d03;
      }

      .cls-3 {
        stroke: #000;
        stroke-miterlimit: 10;
        stroke-width: 0.13px;
      }
    </style>
  </defs>
  <g id="chili">
    <g>
      <path class="cls-1" d="M137.84,61.91c-3.81,39.58-80.67,97-107.59,106-21.07,7,21-49.53,33-74.93,10.24-21.73,8.91-51.16,28-64.89C110,14.69,140.39,35.44,137.84,61.91Z"/>
      <path class="cls-2" d="M88.66,36.31C78,53.91,76.92,84.5,79.72,90.34c2.2,4.56,10-23.18,14.94-35.16,4.19-10.24,12.92-23,13-30.4C107.82,17.6,95.76,24.53,88.66,36.31Z"/>
      <path class="cls-2" d="M64.65,98.66C50.71,114.86,40,141.27,40.34,146c.25,3.71,15.26-20.93,22.94-31.72,6.56-9.22,17.48-21.09,19.93-27.43C85.61,80.67,74,87.83,64.65,98.66Z"/>
      <path class="cls-3" d="M144.22,4.65,140,2a2.3,2.3,0,0,0-3.31.86L121.09,34.07a1.41,1.41,0,0,0,.52,1.8h0a1.67,1.67,0,0,0,2.22-.35L145,8.57A2.73,2.73,0,0,0,144.22,4.65Z"/>
      <path class="cls-4" d="M137.16,61.58c-3.65,7.75-2.26-19-17-26S89.33,36.26,93,28.51s18.56-8.39,33.3-1.45S140.81,53.84,137.16,61.58Z"/>
    </g>
  </g>
</svg>
