<svg xmlns="http://www.w3.org/2000/svg" width="170" height="170" viewBox="0 0 170 170">
  <defs>
    <style>
      .cls-1 {
        fill: #020202;
      }
    </style>
  </defs>
  <g id="chili">
    <g>
      <path class="cls-1" d="M9.05,109.59a49.48,49.48,0,0,1,25.84,33.29,3,3,0,0,0,5.79,0c.92-6.5,1.83-13.35,4.81-19.29a25.22,25.22,0,0,1,12.26-11.67c10.43-5,23.17-5,34.5-7.8,23.42-5.68,43.66-22.09,55.51-42.89a85.65,85.65,0,0,0,11.32-38.69A2.93,2.93,0,0,0,157.6,20c-23.72-10.43-50.18.46-69.89,14.53-18.78,13.41-36.15,32-40.9,55.26-.3,1.46-.47,3-.85,4.4-.3,1.16-.55,1.91-1.82,2.3a21.25,21.25,0,0,1-4.85.51l-6.47.43L8,99a3.08,3.08,0,0,0-3,3,3,3,0,0,0,3,3l22.13-1.48,11.19-.74c3.48-.24,6.9-.74,9-3.8C52,96.67,52.1,93.67,52.68,91A62.3,62.3,0,0,1,55,82.81,69.63,69.63,0,0,1,62.4,68.12c6.21-9.53,14.41-17.67,23.3-24.69,9.34-7.38,19.78-13.78,31-17.76,12.13-4.29,25.78-5.84,37.85-.54l-1.49-2.59c-1,23.2-13.05,45.2-31.05,60A79.68,79.68,0,0,1,91.7,98.08c-11.73,3-24.14,3.14-35.4,8a31.47,31.47,0,0,0-15.23,13.12c-3.86,6.75-5.1,14.55-6.18,22.13h5.79a55.34,55.34,0,0,0-28.6-36.87A3.07,3.07,0,0,0,8,105.49a3,3,0,0,0,1.07,4.1Z"/>
      <path class="cls-1" d="M111.57,67a82,82,0,0,1-4.29,30.84c-.9,2.63,2.23,4.52,4.4,3.39A46.77,46.77,0,0,0,136.19,65c.42-3.89,0-9.55-4.79-10.51a3.07,3.07,0,0,0-3.69,2.09,3,3,0,0,0,2.1,3.69c.17,0,.3.11.32.1s-.53-.79-.09.05c.15.3,0,0,0,0,.05.14.1.29.14.44s.19,1,.14.6a17.91,17.91,0,0,1-.18,4.07,40.3,40.3,0,0,1-2.42,9.3,41.44,41.44,0,0,1-10.45,15.26,39.18,39.18,0,0,1-8.61,6l4.4,3.39A86.57,86.57,0,0,0,117.57,67a3.06,3.06,0,0,0-3-3,3,3,0,0,0-3,3Z"/>
    </g>
  </g>
</svg>
