<svg xmlns="http://www.w3.org/2000/svg" width="100" height="100" viewBox="0 0 100 100">
  <defs>
    <style>
      .cls-1 {
        fill: #325677;
      }

      .cls-1, .cls-2 {
        stroke: #020202;
        stroke-miterlimit: 10;
        stroke-width: 2px;
      }

      .cls-2 {
        fill: #5ea1ea;
      }
    </style>
  </defs>
  <g id="chili">
    <g>
      <path class="cls-1" d="M14.84,25.21A22.37,22.37,0,0,0,5,27.48,22.48,22.48,0,0,1,17.65,47.7,22.48,22.48,0,0,1,5,67.93a22.49,22.49,0,1,0,9.84-42.72Z"/>
      <circle class="cls-2" cx="63.38" cy="48.18" r="30.62"/>
      <path class="cls-1" d="M58.52,74.16a15.86,15.86,0,0,1-11.88,5.43A15.81,15.81,0,0,0,73.3,76.67a15.87,15.87,0,0,0,1.55-6C70.89,73.67,65,74.87,58.52,74.16Z"/>
    </g>
  </g>
</svg>
