<svg xmlns="http://www.w3.org/2000/svg" width="170" height="170" viewBox="0 0 170 170">
  <defs>
    <style>
      .cls-1 {
        fill: #020202;
      }
    </style>
  </defs>
  <g id="chili">
    <g>
      <path class="cls-1" d="M21.19,80.62c10.58-7.89,24-10.6,34.65-18.33a35.78,35.78,0,0,0,12.34-15c2.53-5.93,4.11-12.15,7.84-17.52A36,36,0,0,1,91.1,17.5l-4.41-3.39A39.63,39.63,0,0,0,84,32.26c.54,5,3.87,11.15,9.8,9.64,3.74-.95,2.15-6.74-1.59-5.78-.32.08-.27.18-.07,0h-.28l.26,0c0,.06-.47-.19,0,0a3.31,3.31,0,0,1-.47-.29c.49.37-.48-.55-.16-.17a5.73,5.73,0,0,1-.67-1.08,10.22,10.22,0,0,1-.9-4.92,37.11,37.11,0,0,1,2.61-14,3,3,0,0,0-1.08-3.15,3.11,3.11,0,0,0-3.33-.24A41.62,41.62,0,0,0,68.26,31a80.09,80.09,0,0,0-3.85,9.46,43.18,43.18,0,0,1-4.18,9.08,29,29,0,0,1-5.84,6.33C49.73,59.75,44.1,62.4,38.6,64.83c-7,3.11-14.23,6-20.44,10.61a3.08,3.08,0,0,0-1.07,4.1c.74,1.28,2.79,2,4.1,1.08Z"/>
      <path class="cls-1" d="M90.37,41.36c4.32,1.92,8.87,2,13.51,1.55,4-.35,8.49-1.06,12.07,0a6.67,6.67,0,0,1,2.15,1,10.62,10.62,0,0,1,2.47,2.27c1.5,1.78,2.7,3.8,4.41,5.39a19.45,19.45,0,0,0,12,5,19.22,19.22,0,0,0,13.85-4.64l-5-1.32a57.81,57.81,0,0,1,1.68,33.89L152,82.68a34.16,34.16,0,0,0-14.65-3.83,3,3,0,0,0-3,3c-.13,5.71-3.53,10.76-7.65,14.67-4.78,4.54-10.72,7.62-16.23,11.15a57.13,57.13,0,0,0-14.5,12.73,63.35,63.35,0,0,0-9.19,16.46,84.37,84.37,0,0,0-4.88,20.72c-.19,1.62,1.51,3,3,3a3.07,3.07,0,0,0,3-3c1.35-11.66,5.14-23.66,12.43-33.09a52.9,52.9,0,0,1,14.09-12.23c5.67-3.57,11.63-6.85,16.52-11.5,5.25-5,9.24-11.52,9.41-18.91l-3,3a27.2,27.2,0,0,1,11.62,3,3,3,0,0,0,4.41-1.79A63.67,63.67,0,0,0,151.64,49a3,3,0,0,0-5-1.32,13.14,13.14,0,0,1-9.44,2.89,9.8,9.8,0,0,1-2.17-.33c-.49-.11-1-.25-1.44-.4s-.9-.33-1-.37a11.91,11.91,0,0,1-4.35-3.19c-1.5-1.69-2.66-3.65-4.23-5.28a14.85,14.85,0,0,0-5.69-3.62c-3.84-1.39-8.11-1-12.09-.67-2.29.22-4.58.47-6.88.47a14.69,14.69,0,0,1-6-1,3.1,3.1,0,0,0-4.11,1.07c-.74,1.28-.41,3.45,1.08,4.11Z"/>
    </g>
  </g>
</svg>
