<svg xmlns="http://www.w3.org/2000/svg" width="1459" height="1459" viewBox="0 0 1459 1459">
  <g id="Layer_42" data-name="Layer 42">
    <g>
      <path d="M782.09,590.53c-1.81-3.43-4.13-6.52-7.1-7.92s-5.06-.87-6.72.54a38,38,0,0,0-6.06-10.72,4.9,4.9,0,0,0-5.85-.87c-.46-.81-.94-1.61-1.42-2.41a5,5,0,0,0-4.68-2.35l0,0a18.3,18.3,0,0,1-4.47-6.55c-1.41-3.35-5.16-3.07-7.43-1.09a180.34,180.34,0,0,1-18.58-14.93,4.56,4.56,0,0,0-6.7-.07c0-.1,0-.22,0-.35a11.73,11.73,0,0,0-1.16-3.29,11.87,11.87,0,0,0-3.56-4.78c-2.8-2.21-8.35-1.38-8.55,2.77a97.89,97.89,0,0,1-17.48-11.08,5.23,5.23,0,0,0-7.9,1.31,5.49,5.49,0,0,0-4.51.82q-.39-.85-.84-1.68a20.61,20.61,0,0,0-2.69-3.62,4.44,4.44,0,0,0-3.75-1.39,5.44,5.44,0,0,0-3.24-2.13c-1.08-4.65-8.38-4.65-9.67,0a5.11,5.11,0,0,0-1.31.57,24.86,24.86,0,0,1-4.59,2.13,6.63,6.63,0,0,0-1.58-5.79c-3.12-3.27-8.51-1.8-12.32-1-2.06.4-4,1-5.7-.41s-2-3.28-4.15-4.29a10.69,10.69,0,0,0-6.7-.42c-.17-3.4-4.1-6.22-7.51-4.19L594.5,514a4.86,4.86,0,0,0-8-1.7c-1.93,1.82-3.91,3.55-5.94,5.21a5,5,0,0,0-4.73,0,327.44,327.44,0,0,0-52.13,31.45,5.16,5.16,0,0,0-2.08,5,5.47,5.47,0,0,0-3.36,5.61q-4.49-.24-9-.64c-5.75-.51-6.59,8.3-1.33,9.83q6.19,1.8,12.36,3.71a4.64,4.64,0,0,0,4,1.27l.25.08a10,10,0,0,0,9.92,2.31,4.86,4.86,0,0,0,3.3-6.34l3-.09v0c.44,0,.88-.08,1.33-.14a4,4,0,0,0,3.54-3.91,12.75,12.75,0,0,0,2-1.75l1.91-.26a5,5,0,0,0,5.52.55l7.6-4.13a4.51,4.51,0,0,0,6.9,2.49c1.57-.92,3.11-1.87,4.64-2.84,2.32,0,4.65,0,7-.19a13.38,13.38,0,0,0,7.18-1l.07,0,9.44,2.49a5.08,5.08,0,0,0,6.27-4.9,4,4,0,0,0,4.77,1.4,4.92,4.92,0,0,0,6,.89q2.32-1.26,4.62-2.56a4.75,4.75,0,0,0,1.82,1.48l10,4.93a5,5,0,0,0,5.66-.72,49.17,49.17,0,0,0,13.53-.64,3.23,3.23,0,0,0,.51-.14,46.55,46.55,0,0,0,12.25,4.51,4.94,4.94,0,0,0,5.62-2.71l1.06.68a47.13,47.13,0,0,0,8,8.67,5.71,5.71,0,0,0,4.88,1,10.29,10.29,0,0,0,5.81,3.81,8.39,8.39,0,0,0,5.84-.81c.54.91,1.12,1.8,1.76,2.67a6.09,6.09,0,0,0,6.09,2.14,8.27,8.27,0,0,0,8.81,1.48,7,7,0,0,0,4.66,2.39,6.34,6.34,0,0,0,3.77-.8l.42,0c.28.3.54.61.84.9,3.3,3.18,6.5,3,9.94,1.52,1.88,1,3.72,3.07,5.12,4.21l5.21,4.27,11.19,9.17c3.26,2.67,8.46,1.07,8.53-3.54l.08-4.62a4.81,4.81,0,0,0,1.42.07l.48,1.29c1.82,4.58,7.92,4.87,9.64,0,.17-.46.33-1.07.5-1.72.37.6.67,1.1.75,1.24a39.16,39.16,0,0,1,2.73,6.31,5.06,5.06,0,0,0,8.35,2.21,15.13,15.13,0,0,0,4.63-8.57C790.13,591.86,785.22,589.19,782.09,590.53Z"/>
      <path d="M769.21,877a1,1,0,0,1-.24-.48,2.36,2.36,0,0,0-1.41-1.59.94.94,0,0,0,0-1c-3.49-5.89-9.4-9.58-15.4-12.54-1.16-.57-2.39-1.2-3.66-1.8-1-.54-2-1.06-3.09-1.52-3.34-1.49-6.85-2.71-10.52-1.72l-.19.07c-.13,0-.25,0-.37.05a2.84,2.84,0,0,0-1,.52,9.85,9.85,0,0,0-1.47.63,1,1,0,0,0,.33,1.81,2.48,2.48,0,0,0,2.11,2.64,3.08,3.08,0,0,0,1.63-.15l4.62,1.67q3.36,1.83,6.8,3.46c2.21,3.76,6.65,4,10.25,5.64a6.48,6.48,0,0,1,.64.34c.54.55,1.07,1.11,1.58,1.69a31.05,31.05,0,0,0,3.66,4.09,11,11,0,0,0,3.17,2.52A2.5,2.5,0,0,0,769.21,877Z"/>
      <path d="M878.83,847.78a27.73,27.73,0,0,1-10.35,15.64,44.88,44.88,0,0,1-9.09,4.67c-3.24,1.4-7.79,3.58-8,7.58-.19,3.22,4.81,3.21,5,0,0,.42.19-.08.43-.3a10.47,10.47,0,0,1,.89-.73,16.22,16.22,0,0,1,2.05-1.21c1.55-.8,3.19-1.43,4.8-2.11a33.36,33.36,0,0,0,8.73-5.36,32.6,32.6,0,0,0,10.39-16.85C884.42,846,879.6,844.66,878.83,847.78Z"/>
      <path d="M1147.85,355.38c-11.23-18-25.5-33.33-41.08-47.68-.46-.42-.92-.86-1.39-1.28-.14-.28-.29-.56-.44-.84a6,6,0,0,0-3.75-3.06c-7.33-6.84-14.52-13.74-21.51-20.85q-.12-.3-.27-.6c-26.81-54-69.59-99.51-120.92-131-48.2-29.52-103.83-45.86-160.16-48.89A286,286,0,0,0,689,111.91a4.29,4.29,0,0,0-1.1.51c-40.62,10.2-79.94,26.35-116.78,45.63-28.26,14.79-55.22,32.67-78.16,54.95a247.11,247.11,0,0,0-44.09,58c-26.17,40.71-40.89,88.89-43.63,137.13a3.92,3.92,0,0,0-.28,1.54c0,1,0,2.07,0,3.11a291.48,291.48,0,0,0,2.32,50.29c0,2,0,4,0,6q.08,11.64.51,23.28a6.62,6.62,0,0,0,3.76,6,48,48,0,0,0,.32,6.57c-.3,1.46-.61,2.92-.89,4.39a4.55,4.55,0,0,0,0,1.68,31.19,31.19,0,0,0-28.36,1.3c-17.44,9.86-25.61,31.26-28,50.13-2.82,22.36,2.29,44.74,9,66,7.21,22.93,15.79,45.4,23.13,68.29,1.93,6,3.78,12,5.51,18.13-3.38,13.83-6,35.22,8.91,41.39a3,3,0,0,0,.65.18,87.62,87.62,0,0,0,3.49,11.54L402.66,784l-2.49,15.47c-.55,3.45-2.16,8-1.1,11.57a78.72,78.72,0,0,0-1.49,26c-1.88,6.78-3.89,13.53-5.89,20.28-3.73,11.43-7.45,22.86-10.77,34.39a112,112,0,0,0-3.6,47.46c0,12.4.55,24.84,1.23,37.22q-.09,14.67-1,29.3c-.18,2.24-.33,4.48-.43,6.71a18.94,18.94,0,0,0,5.34,13.51c.81,6.65,1.76,13.28,2.9,19.88a170.82,170.82,0,0,0,7,44.48c6,20.25,16.15,39.1,26.37,57.48,9.84,17.7,19.83,35.36,30.15,52.77,10.5,17.69,24.28,32.72,38.2,47.74,7.17,7.75,14.46,15.38,22.15,22.61,3.94,3.71,8,7.32,12.17,10.76,6.15,5.07,13.09,11.86,21.65,11.44,25,33.66,60.21,58.54,100.82,69.58a171.79,171.79,0,0,0,40.41,5.81,17.85,17.85,0,0,0,4.18,1.61q18.07,4.32,36.38,7.64c13.7,2.46,29.63,6.83,42.15-1.74a26.18,26.18,0,0,0,4.1-3.47l4.16-.2c22.26,1.93,44.51,3.67,66-3.75a71.53,71.53,0,0,0,13.56-3.13,22.43,22.43,0,0,0,11.65-8.91c13.16-7.87,25.17-17.54,36.54-28.08a290.49,290.49,0,0,0,43-49.77c13.79-20.34,24.34-43.5,29.18-67.66a23.47,23.47,0,0,0,.43-4.1c6.72-.22,13.61-3.37,16.31-9.66.7-1.64,1.35-3.23,1.95-4.81l.07,0,.19-.73a61.64,61.64,0,0,0,3-10.55l.3-1.65,3.9-14.62a18.74,18.74,0,0,0,.43-2.21l.86-2.37c.21-.55,2.24-5.6,1.92-4.87,2.21-5.28,4.52-10.52,6.67-15.82q5.64-14,10-28.36c.71-2.36,1.4-4.72,2.06-7.1a16.44,16.44,0,0,0,8.5-7.85c4.37-9.16,6.29-18.77,4.32-28.6l2.82-16.71a506.36,506.36,0,0,0,15-97.22,16.71,16.71,0,0,0-1.51-7.85q1.17-14.07,2-28.16a16.68,16.68,0,0,0-1.25-7.24c.08-3,.25-6,.46-9.05a336.66,336.66,0,0,0,3.27-36.44,10.92,10.92,0,0,0-.87-4.81q0-1.78-.15-3.57a12.55,12.55,0,0,0-1-4.2c-.13-10.46,1.33-21,2.79-31.27l2-14.06a15.59,15.59,0,0,0,.66-2.87c1.28-9.88,3-19.71,5-29.47,0-.16,0-.32.07-.49a167.48,167.48,0,0,0,15.43-26.51c6.18-12.75,9.62-26.57,11.86-40.61a4.27,4.27,0,0,0,4.38-2.5c5.84-11.34,15.68-17.34,26-24,4-2.59,8-5.88,9.55-10.57,2-5.92-.18-11.74-3.2-16.88a4.86,4.86,0,0,0-.53-.76,4.51,4.51,0,0,0-.28-1.69,43.21,43.21,0,0,0-4.46-8.75A231.34,231.34,0,0,0,1106.87,615c-3.78-5.06-7.73-10-11.89-14.76-4.61-5.27-9.44-10.21-12.65-16.52a4.85,4.85,0,0,0-.77-1.11q1.92-13.56,4.8-27,.83-3.45,1.64-6.9c2.32.69,5.28-.54,5.29-3.67q0-6.09-.11-12.19a122.51,122.51,0,0,0,61.19-34.39,61.21,61.21,0,0,0,11.88-14.28,119,119,0,0,0,6.8-10.77,4,4,0,0,0,4.59-3.83A199.64,199.64,0,0,0,1147.85,355.38Zm-704-39.59c9.95-27.5,24.22-53.72,43.18-76.07a243.14,243.14,0,0,1,26.56-26.66c19.59-14.9,41-27.53,62.37-39.58,14-7.87,28.13-15.4,42.57-22.36q12.41-5.22,25-9.93c32.13-12,65.46-21.21,99.67-24.68a352,352,0,0,1,76.24.58,3.7,3.7,0,0,0,1.08,3.21,187.46,187.46,0,0,1,30,41.25,180.88,180.88,0,0,1,10.55,23.63c.31.85.6,1.71.89,2.58q1,6.77,2.26,13.49C761.75,209.4,666,252.18,574.54,296.84c-27,13.18-55.87,25.14-79.11,44.56-4,3.3,1.73,8.93,5.65,5.65,20.4-17,45.61-27.66,69.27-39.28,23.9-11.72,47.88-23.28,72.17-34.2,48.71-21.9,98.85-41.26,151-53.27a487,487,0,0,1,72.19-11.15c.24,1.22.5,2.45.75,3.68,3.41-.79,6.86-1.43,10.32-1.94,0-1.5-.11-3-.23-4.52a54.76,54.76,0,0,0-1.62-9c-2-5-4.1-10-5.81-15.1-1.14-2.31-2.22-4.66-3.27-7l-.11,0c-.54-1.32-1.11-2.63-1.68-3.93-.18-.42-.37-.84-.56-1.25,0-.07,0-.13-.07-.2-2.08-4.68-4.32-9.28-6.78-13.77a194,194,0,0,0-26.91-37.59q13.62,2,27,5.13a3.77,3.77,0,0,0,.42.49,149.44,149.44,0,0,1,41,71.8,5.24,5.24,0,0,0-.84.73,3.84,3.84,0,0,1,.5,1.06c.06.18.1.37.15.56a4.13,4.13,0,0,1,.92,1.58,22.58,22.58,0,0,1,.93,4.31h.08c.11.62.23,1.24.34,1.87.11,1.13.18,2.21.31,2.89v.09q5.12-.16,10.22-.19a44.08,44.08,0,0,0-2.33-5.77,3.83,3.83,0,0,0-.9-1.21c-.06-.21-.11-.42-.17-.62a157.71,157.71,0,0,0-33.84-71.23q5.88,2.85,11.66,6.05a3.67,3.67,0,0,1,3-.54,161.71,161.71,0,0,1,25.15,7.86l-5.7-3.43q12.61,5.23,24.79,11.57a319.09,319.09,0,0,1,63.78,44c-1.72-1.29-3.47-2.54-5.22-3.79,1.38,1.4,2.7,2.86,3.94,4.35a124,124,0,0,1,15.47,16.65c1.12,1.44,2.19,2.92,3.31,4.36,0,0,1.09,1.25,1.45,1.66,1.81,2,3.67,4,5.51,6.08,1.5,1.66,3.61,3.66,5.29,5.87a43.79,43.79,0,0,1,8.09,10.63,25.21,25.21,0,0,1,4.57,6.6l4.69,5.43c4.58,5.34,9.17,10.68,13.82,16q3.18,5.43,6.13,11-3.24-1.65-6.55-3.15a303.53,303.53,0,0,0-27.35-14.86,222.14,222.14,0,0,0-54.78-21.11,226.69,226.69,0,0,0-23.49-4.22c-2.38-.43-4.76-.82-7.14-1.19q-5-1.09-10-2a4,4,0,0,0-2.55.33c-3.47-.39-6.95-.74-10.44-1a3.38,3.38,0,0,0-3.31-1.63l-6,.33a3.28,3.28,0,0,0,.57-1.33c.26-1.4.44-2.79.57-4.17q-4.5.07-9,.23l.71,3.94a3.3,3.3,0,0,0,.86,1.68l-1.86.1q-12.5-.24-25,.59a4.7,4.7,0,0,0-.59-1.16,4,4,0,0,0,.19-2.51c-.07-.33-.15-.67-.22-1q-4,.36-8,.81c.13.54.24,1.09.37,1.64a462.16,462.16,0,0,0-85.55,25.35,3.18,3.18,0,0,0-.32.16c-44.29,16.6-87,37.53-128.79,59.65-13.67,7.24-27.26,14.63-40.82,22.06q-60.59,29.4-120.08,61-11.5,6.12-23,12.32a3.7,3.7,0,0,0-1.51,1.44,4,4,0,0,0-3.42,2,4,4,0,0,0-4.13.82q-2.73,2.35-5.24,4.91a4.89,4.89,0,0,0-1.73-3.63c-6.39-4.88-8.43-13.36-6-20.8,1.62-4.9-6.1-7-7.72-2.13A26.3,26.3,0,0,0,446.17,418c-4.21,3-7.06,8.54-9.35,12.82-2,3.75-3.83,7.61-5.48,11.54a4.23,4.23,0,0,0-1.29,1.76q-4.86,12.16-8.77,24.62C421,417,426.2,364.67,443.88,315.79ZM441.1,443.07a3.75,3.75,0,0,0-1-.77c.4-.9.82-1.79,1.25-2.67l.06-.14c-.15.81-.27,1.63-.36,2.47A3.39,3.39,0,0,0,441.1,443.07Zm-29.83,381.1-.57,3.52-.34.1c.34-1.42.69-2.84,1-4.26C411.34,823.75,411.31,824,411.27,824.17Zm15-241.38q-1.62,21.19-3.23,42.38a101.39,101.39,0,0,0-2.51,16.15c-.79,3.77-1.6,7.55-2.45,11.31a5.09,5.09,0,0,0,.38,3.58l-3.54,21a24.13,24.13,0,0,1-2.13-4.88c-1.31-4.17-.92-7.15.7-11.11a31.71,31.71,0,0,0,1.9-16.67,75.63,75.63,0,0,0-2.66-11.06h0l.13-.15.39-.51a3.89,3.89,0,0,0,0-4,5.71,5.71,0,0,0-1.33-1.53,32.28,32.28,0,0,1-2.54-15.46,20.27,20.27,0,0,1,1.62-5.36,4.06,4.06,0,0,0-.53-4.39c1-7.28,2.05-14.62,2-22,0-10.77-3.07-22.11-10.69-29.63a3.38,3.38,0,0,0-1.14-2.5l-10.3-8.62a4.07,4.07,0,0,0-5.63.14,4,4,0,0,0-1.23,1.35,4.7,4.7,0,0,0-3.61,3.49c-.17.88-.32,1.75-.46,2.63-2.38,7.22-2.73,14.86-2.41,22.46.33,8.09.57,16.62,3.49,24.26,1.83,4.79,10.56,4.73,9.82-1.33-1.39-11.48-2.8-23.14-2.1-34.7a4.61,4.61,0,0,0,1.37,1c2.42,2.45,6.31,1.38,7.92-1.05,7.51,8.64,7.51,22.22,6.28,33.44-.81,7.47-2.19,14.92-2.76,22.41a31.85,31.85,0,0,0,2,13.23c.29,1.21.6,2.42.92,3.63,0,.1-.06.18-.08.28a16.27,16.27,0,0,0,.17,5.24A34.31,34.31,0,0,0,407,655c0,.06.07.11.1.16a22.13,22.13,0,0,1-.76,2.44c-1.32,3.4-2.71,6.31-2.54,10,.31,7.06,3.68,13.6,8,19a3.2,3.2,0,0,0,3.32,1.27,5.8,5.8,0,0,0,.52.48A233.27,233.27,0,0,1,409,712.51a4.38,4.38,0,0,0,1.73,5.16q-.58,10.89-2.13,21.65c-.1-.5-.21-1-.31-1.52-2.14-10.19-4.78-20.27-7.73-30.26-5.81-19.72-12.8-39.07-19.51-58.49-12.15-35.2-28.24-78.6-7.28-113.78,4.61-7.74,11.74-15.34,21-17.08,7.36-1.39,16.54,1.79,19.32,9.25a5.33,5.33,0,0,0,7.38,2.86q1,11.85,2.2,23.67l.19,2.46a3.72,3.72,0,0,0,.17.87q1.1,10.32,2.38,20.62a4.35,4.35,0,0,0,.93,2.2A5.1,5.1,0,0,0,426.31,582.79Zm6.17-85a3.85,3.85,0,0,0-4-3.86,23.27,23.27,0,0,1-.62-8.36q6.24-17.57,12.49-35.12c1.64,2.1,5,2.75,6.35-.3a83.87,83.87,0,0,1,5.61-10.57l.34-.38a148.35,148.35,0,0,0-16.13,45.12q-2.19,7-4.05,14.09C432.48,498.17,432.49,498,432.48,497.76Zm1.82,189.06c-.09-1.17-.15-2.32-.22-3.47l.35.27c.16,2.85.25,5.71.33,8.57C434.6,690.4,434.45,688.61,434.3,686.82Zm5.57-142.53q-1.89-8.32-3.2-16.84a4,4,0,0,0-2.48-3.33,3.59,3.59,0,0,0,.76-1.88c1.83,3.22,7.76,2.65,7.47-1.79a141.14,141.14,0,0,1,2-34.52,312.3,312.3,0,0,1,25.31-58.58,3.72,3.72,0,0,0-2.12-5.6l.67-.78a5.67,5.67,0,0,0,.53-.74l.14,0c25.24,4.94,45.94-13.68,67.08-24.14,25.46-12.6,53.33-20.08,79.76-30.38C669,345,719.88,319,772.75,297.51c25.46-10.35,52-19.08,79.52-21.61l.63-.06a3.17,3.17,0,0,0,2.77,2.73l28.82,3.9a270.49,270.49,0,0,1,101,41.6,3.26,3.26,0,0,0,.84.41q14.72,13,28.36,27.17a301.37,301.37,0,0,1,28.66,47.27c7.53,19.13,13.47,39,19.15,58.6,3.19,11,6.37,22,8.62,33.13a290,290,0,0,1,2.46,36.91,7.38,7.38,0,0,0-.51,8.17c0,.06,0,.13,0,.19-.49,3.09,2.41,6.28,5.51,4.71-2.64,10.09-5.2,20.21-7.26,30.44-1.77,8.75-5.31,20.08-2.32,29a314.83,314.83,0,0,1-1.64,31.48c-1.79-.55-3.58-1.12-5.36-1.68a3,3,0,0,0,.55-.46,2.94,2.94,0,0,0,.82-1.29,3,3,0,0,0,.33-1.35,4.42,4.42,0,0,0,.43-1.53,5.11,5.11,0,0,0,1.69-3.33c1.09-9.79-1.18-19.33-4.92-28.33-1.76-4.23-3.76-8.35-5.88-12.41s-3.92-8.2-7.8-10.77a89.57,89.57,0,0,1-11-8.08c-3.48-3.14-7-6.14-11.36-8a20.3,20.3,0,0,0-11.57-1.63c-4.61.86-7.07,3.68-10.53,6.45-4,3.17-6.66.35-10.43-1.44s-7.65-2-11.2.11c-3.22,1.89-5,5.46-8.24,7.25-4,2.21-9.22,1.78-13.65,2.14-9.7.8-18.34,5.22-28,6.07a41.53,41.53,0,0,0-13.25,3.64c-4.46,1.9-8.86,2-13.47,3.13a16.12,16.12,0,0,0-5.82,2.69c-.4.3-.76.62-1.12,1-.92.32-1.84.63-2.72,1-2-.49-3.69-.82-5.75.21-1.77.89-2.51,2.73-4,3.86-3.35,2.56-7.78,2.48-11,5.68a17.45,17.45,0,0,0-2.39,3c-.91.32-1.78.68-2.64,1.08a5.5,5.5,0,0,0-2.95,1.6,29,29,0,0,0-4.66,3.6,4.89,4.89,0,0,0-1-.12c-1-3-5.25-4.48-7.11-1-.22.41-.45.79-.69,1.16a15.93,15.93,0,0,0-1.92,2.13l-.65.55a8.55,8.55,0,0,1-1.53.82c-1.87.76-3.61,2.94-2.86,5a39.17,39.17,0,0,0-2.72,6.17c-1.27,3.77,4,6.78,6.68,3.89.42-.45.81-.91,1.21-1.36a4,4,0,0,0,6.69-.28l1.26-2.21a4.68,4.68,0,0,0,2.61-.4,4.93,4.93,0,0,0,0,2.47c-.75,2-1.44,4.14-2,6.29-1.65,6,7.13,8.63,9.38,3.39a5.62,5.62,0,0,0,4.86,1.11,5.4,5.4,0,0,0,7.54,4c11.7-5.54,24.35-8.31,37.09-10.34a4.94,4.94,0,0,0,6.32-.36c.28-.25.57-.49.85-.72l6.52-.91a3.89,3.89,0,0,0,3.57-4.5A94.6,94.6,0,0,1,950,615.19a191.32,191.32,0,0,1,30.7-2.63,197.58,197.58,0,0,1,57.08,8.08,4.69,4.69,0,0,0,3.76,1.87c4.42.15,8,3.35,12.54,1.61a8.56,8.56,0,0,0,1.75-.92,4,4,0,0,0,.22.88,2.84,2.84,0,0,0-.57,1,3,3,0,0,0-.35,1.54l.15,1.06,0,.1c-10.72-3.4-21.41-6.59-32.72-8.15-32.59-4.49-65.55.44-97.08,8.91-18.24,4.89-36.14,11-54,17a5.2,5.2,0,0,0-1.72,1,5.61,5.61,0,0,0-1-.38c-17.08-4.53-35.65-3.68-53.19-4.41-18.32-.76-36.82-2.22-54.92,1.61a5.65,5.65,0,0,0-1.26.43C748.52,637.19,737.59,631,725,628.87a257.93,257.93,0,0,0-34.22-11,164.68,164.68,0,0,0-17.83-3.76q-5.43-1-10.91-1.67a4.77,4.77,0,0,0-3.27-6.28A106.39,106.39,0,0,0,627,602.26a5.43,5.43,0,0,0,1.45-3.34c30.38,2.66,63.16,6.16,88,25.52,4,3.13,9.71-2.49,5.66-5.65-27.23-21.23-62.05-25.12-95.35-28a3.32,3.32,0,0,0-3.78,3c-15.7.84-29.61,7.93-43.17,15.36a4.49,4.49,0,0,0-1.95,6.18c-4.36.88-8.7,1.86-13,3a4,4,0,0,0-3.83-1.48l-39.59,4.35-19.3,2.12c-5.76.63-11.74.9-17.28,2.71a100.73,100.73,0,0,0-11.68-16.39c-12.27-14.51-21.9-29.53-27-48a4.57,4.57,0,0,0-2.68-3.16q-1.62-5.6-3-11.29A4.48,4.48,0,0,0,439.87,544.29Zm591,57.44-2.14-.74,1.36-.23A4.88,4.88,0,0,0,1030.84,601.73ZM951,673.54a17.55,17.55,0,0,1-4.32,2.38A27.35,27.35,0,0,0,951,673.54Zm-24.35-21.13a8,8,0,0,1,1.53-2,9.92,9.92,0,0,1,2.34-1.55,5.46,5.46,0,0,0,4.73,4.25c1.45.11,3.14.2,4.84.44a5.6,5.6,0,0,0-1.27.84,7.06,7.06,0,0,0-1.56,2.09,14.76,14.76,0,0,0-7.65,4.21,6.32,6.32,0,0,0-.54.64,11.66,11.66,0,0,0-2.67-2.12,38.75,38.75,0,0,1,.49-4A5.19,5.19,0,0,0,926.65,652.41Zm-44.17-.08c-.47.5-.91,1-1.36,1.54a5.34,5.34,0,0,0-.33-.68c0-.09-.08-.16-.12-.25ZM764.35,730.79c-8.49,23.94-26.3,43.36-48.35,55.87-24.72,14-54,20.05-82.23,19.81-28.64-.24-54.3-11.72-74-32.42-18.13-19-29-43.57-34.57-69.07a4.93,4.93,0,0,0-.19-2.4c-.25-.76-.51-1.5-.78-2.25-.19-1-.39-2-.56-2.92a5.11,5.11,0,0,0,.56-3.49c-1.33-7.32,2.54-14.35,6.19-20.41a103.33,103.33,0,0,1,12-16.12,107.43,107.43,0,0,1,14-13c2.54-2,5.19-3.79,7.91-5.51q2-1.27,4.07-2.46l2.07-1.16a5.39,5.39,0,0,0,1-.4,4.49,4.49,0,0,0,1.48.38c-.2.24-.41.47-.61.72-1.66,2.12-2.07,5,0,7.07a5,5,0,0,0,1.07.78,4.81,4.81,0,0,0,.35,4,66.79,66.79,0,0,0,13.55,17.66,6.65,6.65,0,0,0,.9.68.11.11,0,0,0,0,0,7.69,7.69,0,0,0,4.14,5.36l.16.06a3.82,3.82,0,0,0,2.45,2.2,161.72,161.72,0,0,0,75.53,6c0,2.43,1.93,4.77,4.82,3.7a19.89,19.89,0,0,0,10.18-8c2-3-1.31-6.64-4.52-5.87a154.08,154.08,0,0,1-83-3.27,3.45,3.45,0,0,0-1.57-1.73l-.33-.17,0,0h0c0-.12-.08-.23-.1-.36a2.56,2.56,0,0,0-.28-.77,4.36,4.36,0,0,0-1.26-4.91,58.25,58.25,0,0,1-12-15.63,4.91,4.91,0,0,0-1.32-1.62,18.81,18.81,0,0,1,7.41-4.86,5.12,5.12,0,0,0,3.49-6.15,4.6,4.6,0,0,0-.71-1.48c2.87-.36,5.77-.62,8.64-.86q8.93-.74,17.9-1c-9.75,15.71,7.73,35.64,24.43,37.23s36.66-18.19,29.77-35.06c2.41.28,4.83.57,7.24.89a5.27,5.27,0,0,0,.68,0,255.5,255.5,0,0,1,24.93,7.56s0,.08,0,.13c-1.94,1.74-2.7,4.76-.28,7.09a73.06,73.06,0,0,0,15.81,11.62,25.88,25.88,0,0,0-3.5,2.09,6.39,6.39,0,0,0-1.05,1,49.23,49.23,0,0,1-4.58,1.85c-6.05,2.09-3.45,11.75,2.66,9.65a66.71,66.71,0,0,0,15-7.27,5.24,5.24,0,0,0,1.71-6.73c1.86-2.19,2.06-5.63-1.25-7.17a66.44,66.44,0,0,1-12.37-7.48,248.3,248.3,0,0,1,28.66,14.27c13.82,20.77,23.71,45.28,18.06,70.52A4.88,4.88,0,0,0,764.35,730.79ZM645.47,633.27a34.81,34.81,0,0,0-12.37,1.64c0-.22,0-.44,0-.66a5.41,5.41,0,0,0-.27-1.45l-.3-4.18a5.21,5.21,0,0,0-.58-2.09q7.85,0,15.69.41l0,0C645.72,628.57,645.36,630.88,645.47,633.27ZM523,656.16c-.5.23-1,.85-1.66,1.16a14,14,0,0,1-3.07,1.07,16.59,16.59,0,0,1-8.19-.33c-3-.86-10.15-3.92-6.61-6.8a4.16,4.16,0,0,0,3.5-1c.9-.23,1.82-.43,2.76-.59a38.89,38.89,0,0,1,7.15-.47c1.13,0,2.27.09,3.4.21a3.94,3.94,0,0,0,1.32.48,3.79,3.79,0,0,0,1,2.23A5.44,5.44,0,0,0,523,656.16Zm-44.41,516.07.94-.08a16.2,16.2,0,0,0,.17,2ZM840,996.14l0,0c-.71,1-1.37,2-2,3-.2.31-.39.62-.58.94l-.37.62c-.23.38-.46.75-.68,1.14-10,.17-19.81,4.51-27.33,11a17.55,17.55,0,0,0-13.4,1.24l-.08-.08a25.71,25.71,0,0,0-18.81-7.55,23,23,0,0,0-4.49.58,8.84,8.84,0,0,0-5.44-1.41l-53,5.19a12.55,12.55,0,0,0-7.67,3.23,19.28,19.28,0,0,0-3.58-1.19c-3.89-2-7.73-4.18-11.56-6.33-6.64-3.75-15.25-7.36-19.77-13.81-3.08-4.4-8.47-6.66-13.49-4.69a10.53,10.53,0,0,0-.38-1.2,14.77,14.77,0,0,0,6.82-4.64c2.6-3.21,5.12-6.48,7.58-9.78a22.09,22.09,0,0,0,2.51-3.25c.34-.52.66-1,1-1.58l.78-1.09c.15.12.29.25.45.37a20.23,20.23,0,0,0,19.62,2.79,16.84,16.84,0,0,0,3.44,4.58c6.09,5.59,16.94,8.44,24.23,3.12q2.63-1.91,5.26-3.8a25.29,25.29,0,0,0,11.76,4.23l20.66,2.34c4.52.51,9-1.31,12.51-4.35a11.38,11.38,0,0,0,9.4,6.23c9.64,1,19.24,2.33,28.78,4,9.42,2.78,18.66,6.59,27.94,10.16ZM1038.48,804a10.08,10.08,0,0,0-.76,1.93,10.55,10.55,0,0,0-3.46,5.45c-4.8,17-9.67,34-15.85,50.48-3.51,8.62-7.54,18.74-13.84,25.93a10.62,10.62,0,0,0-3.92,2.5l-.39.39a10.88,10.88,0,0,0-2.63,4.31,37,37,0,0,0-2.4,4.42,18.32,18.32,0,0,0-2.17,3.08c-3.92,7-8.09,13.89-12.57,20.56q-3.36,5-6.94,9.86c-.35.47-3,3.9-3,3.93-.95,1.2-1.89,2.4-2.86,3.58q-5.75,7-12,13.63l-5,4.63a48.91,48.91,0,0,1-10-5.15c-1-1.2-2-2.37-3-3.33a24,24,0,0,0-3-2.33c-.22-.28-.44-.56-.65-.85-5-7-9-14.66-15.61-20.31a10.57,10.57,0,0,0-4.62-2.34,95.78,95.78,0,0,0-5.71-8.15,85.35,85.35,0,0,0-22-19.8,19.66,19.66,0,0,0-1.53-1.63,14.19,14.19,0,0,0-9.14-3.88,67.71,67.71,0,0,0-16.21-4.55,12,12,0,0,0-8.91,1.93l.27-.85a2.55,2.55,0,0,0-.25-1.93,2.59,2.59,0,0,0-1.2-1,2.44,2.44,0,0,0-1.09-.19,2.59,2.59,0,0,0-.48,0,2.79,2.79,0,0,0-1.77.74,25.61,25.61,0,0,0-4.82,5.61l0,0A9.87,9.87,0,0,0,830.17,892a109.47,109.47,0,0,1-22.72,5.64c-5.54.69-12.78,1.14-17.17-2.91a10.24,10.24,0,0,0-11-2.07,10.67,10.67,0,0,0-9.79,2.59,9.82,9.82,0,0,0-1.92,2.71,14.74,14.74,0,0,0-5.42-3.16,15,15,0,0,0-7.7-1.73h-.29A20.75,20.75,0,0,0,743.5,882.4a19.5,19.5,0,0,0-3.81-1.14,11.22,11.22,0,0,0-9-5.36,126.83,126.83,0,0,0-68.94,13.81,11.85,11.85,0,0,0-6.52,1.41,92.82,92.82,0,0,0-20.72,14.61,10.38,10.38,0,0,0-2.79,4.12c-5.27,4.57-10.41,9.3-15.37,14.23-9.23,9.15-17.49,19.73-27.31,28.36-1.86-3.34-7.59-3.23-9,.53-.69-.51-1.4-1-2.11-1.5q-3.17-9.26-7.11-18.26c-1.47-3.39-6.85-3.1-8.55-.14q-3-10-6-20.09a5.06,5.06,0,0,0-7.47-2.85l-3.08-11.22c-.83-3-4-4-6.55-3.28l-2.31-8.33c-1.23-4.43-8.84-5.09-9.65,0,0,.08,0,.16,0,.25L522,876c-1.68-3.83-8.44-2.9-9.14,1.19a24.21,24.21,0,0,1-.63,2.82c-.45-1.12-.89-2.24-1.29-3.38a23.86,23.86,0,0,0-1.85-5.34c-1.26-2.61-4-3-6.18-2l-2.52-5.54c-1.14-2.5-3.85-2.89-6.08-2-.57-1.91-1.11-3.83-1.65-5.75a42.19,42.19,0,0,0-2.82-10.41,5.37,5.37,0,0,0-8-2.49c-3.33-13-7.29-28.86-7.87-31.2-.77-3.13-4.28-4.08-6.9-3.18A21.16,21.16,0,0,0,466,806.4c-.34-1.35-.66-2.71-.92-4.08a4.26,4.26,0,0,0-2.73-3.14c-6.48-18.29-10.38-37.89-13.07-56.95-1.49-10.56-3-21.14-3.77-31.79-.83-11.26-.4-22.57-1.56-33.81a5.41,5.41,0,0,0-1.25-2.88,529.56,529.56,0,0,1,5.47-55.36,5.54,5.54,0,0,0-5.34-6.27c.48-2.62,1-5.25,1.45-7.87q2.68,5.26,5.73,10.37a339.77,339.77,0,0,0,19.11,28.61,62.82,62.82,0,0,0,8.34,10.83c8,10,16.41,19.5,25.22,28.62a4.72,4.72,0,0,0,2.63,1.45,90.15,90.15,0,0,1,9.51,19.42c5.09,25.1,14.67,49.17,30.8,69.41,18.5,23.2,45,39.35,74.67,42.73,31.23,3.55,65.42-2.77,93.59-16.58,1.83-.9,3.65-1.85,5.43-2.83-1.44,1.67-2.88,3.33-4.29,5a4.13,4.13,0,0,0,.08,5.45,3.75,3.75,0,0,0-1.93,1.18,36,36,0,0,0-9.45,23A36.56,36.56,0,0,0,705.22,843a35.6,35.6,0,0,0,1.43,3.8c1,6.76,3.35,14.64,9.29,12.57,3.32-1.16,4.28-5,2.87-8-1.23-2.57-2.85-4.68-4.2-7A41.64,41.64,0,0,1,720,816.54a3.63,3.63,0,0,0-.36-4.42,4.08,4.08,0,0,0-.88-3.94,3.51,3.51,0,0,0,1.83-1.22q11.31-13.49,23.65-26a3.65,3.65,0,0,0,1-3.61A112.47,112.47,0,0,0,773,736.12,97.45,97.45,0,0,0,779,710.59a27.81,27.81,0,0,0-.13-20.87,6.14,6.14,0,0,0-.31-.63,78.23,78.23,0,0,0-2-9.67c.24-.44.47-.88.68-1.33a15.11,15.11,0,0,1,3.44-3.63,6.07,6.07,0,0,0,1.2.09,20.33,20.33,0,0,0-3.09,6,4,4,0,0,0,6.88,3.6,3.86,3.86,0,0,0,4.66-2.64l.54,0c5,.09,5.13-7.41.43-8a3.82,3.82,0,0,0-1-1.9,2.79,2.79,0,0,0-.42-.35,13.06,13.06,0,0,1,2.45-.9c1.25-.14,2.5-.22,3.77-.26a5.15,5.15,0,0,0,2.79-.84,148.62,148.62,0,0,1,20.65.93,207.5,207.5,0,0,1,21.15,3.59c1.33.29,3.31.64,5.41,1.17a4.61,4.61,0,0,0,.58,3.64c2.16,3.62,2.09,7.87,2.38,12l.33,4.55a5.25,5.25,0,0,0-.71,3.5q.92,6.78,2.37,13.43c2.85,28.54,7.75,57.35,25.68,80.49a4.39,4.39,0,0,0,1.63,2.82c6.32,5.32,12.59,9.65,20.33,12.63,7.42,2.86,15.08,5.25,22.71,7.46,15.77,4.56,32.34,7.79,48.82,6.82s31.79-6.79,46.88-13.35c7.77-3.38,15.72-6.83,22.81-11.47ZM1057,709.07c0,.11,0,.22,0,.33l-6.66,38.84c-1.09,5.26-2,10.57-2.79,15.91a8.28,8.28,0,0,0-1.44,3.19c-.62,3-1.25,6-1.87,9a79.3,79.3,0,0,1-18.79,13.75,4.45,4.45,0,0,0-2.34,2.69c-19.65,11.36-43,15.72-65.67,13.77a142,142,0,0,1-44-11.46A173,173,0,0,1,893,784.61c-5.95-3.56-11.86-7.39-15.69-13.32a5.2,5.2,0,0,0-.73-.91c-9.82-24.66-17.34-52.53-6.62-77.93,2.49-4.76,5-9.53,7.88-14.1a3.59,3.59,0,0,0,1.16.51c-.39,3.14,1.28,5.91,4.46,8.1,4.62,3.17,9.31,6.28,14,9.41a4.24,4.24,0,0,0,3.95.62,3.78,3.78,0,0,0,1.49,1.34c16.4,8.47,34.94,8.25,52.93,7.65,8.95-.3,17.63-1.22,25.8-5.13,6.66-3.18,12.49-7.83,18.06-12.67a3.55,3.55,0,0,0,2.72-2.39l1.57-1.39c2.85-2.54-.16-8.23-3.89-6.69A8.22,8.22,0,0,0,995.8,681c-5.19,4.58-10.55,9-16.72,12.22-7.86,4.06-16.36,4.57-25,4.83-15.9.48-32.6.89-47.11-6.61a4,4,0,0,0-2.25-.45,4.9,4.9,0,0,0-2.18-3.23l-7.76-5.23-3.62-2.44-1.46-1c1.86-4-2.72-7.58-6.39-6.41a3.58,3.58,0,0,0-.94-1A70.08,70.08,0,0,1,893.91,659c7.39-6.22,16.17-10.4,25.33-13.37a20,20,0,0,0-1.57,2.64,4.29,4.29,0,0,0-2.8,1.66c-10.08,12.28,2.6,29.08,14.43,34.38,14.66,6.56,29.67.07,36.93-13.94,6.63-12.79-.51-26.94-13.11-31.81,4.39-.58,8.8-1.08,13.2-1.52-2.3,2.63-2.15,7.23,2.15,7.85,7.62,1.11,17.48,2.51,23.6,7.6,5.46,4.54,6.2,12.49,6.83,19.09.25,2.68,2.08,5,5,5,3.61,0,7.1-.52,9.76-3.19,1.36-1.36,3-7.68,4.46-8,3.83-.79,4.63-5.77,2.21-8.35a34.16,34.16,0,0,0-7.21-5.5,4.65,4.65,0,0,0-2.29-5.06l-.8-.48a5.15,5.15,0,0,0-3.36-5.29l-14.76-5.63a186,186,0,0,1,36.47,1.66,122.1,122.1,0,0,1,36.76,11.53c-.65,4.11-1.36,8.22-2.18,12.3a5.45,5.45,0,0,0,.63,4ZM1007,659.15c.69.45,1.38.91,2.06,1.4a15.49,15.49,0,0,0-1.17,2.72C1007.6,661.88,1007.3,660.51,1007,659.15ZM1078.8,725l-.3.08c-5.72,2.34-7.55,11.11-10.14,16.29-1.4,2.8-2.88,5.57-4.41,8.3,1.68-10.42,4.12-20.81,5.91-30.95a6.88,6.88,0,0,0,.09-1.48,3.91,3.91,0,0,0,1.28-2.72l2.91-45.37c.14-1,.27-1.92.41-2.88a4.61,4.61,0,0,0,.71-3.28c0-.23,0-.46-.08-.69.16-1,.32-2,.49-3,.58.88,1.17,1.77,1.74,2.66,3.18,4.94,6.38,10,8.33,15.58.12.33.2.66.31,1C1084.63,693.89,1083,709.92,1078.8,725Zm18.59-39.84c0-.42,0-.85-.07-1.28.41.06.81.1,1.21.14Q1097.95,684.56,1097.39,685.14Zm9.59-25.08a5.47,5.47,0,0,0,.62.67,5.32,5.32,0,0,0,4.88,1.23,13.68,13.68,0,0,1,5.43,3.93,4.71,4.71,0,0,0,4.83,1.24,8.49,8.49,0,0,1-3,3.74c-1.09.84-2.23,1.6-3.4,2.33a4.58,4.58,0,0,0-3.16-.21,33.38,33.38,0,0,1-15.7.82,5.31,5.31,0,0,0-1.63,0,3.82,3.82,0,0,0-1.53-1.65,70.42,70.42,0,0,0-3.35-7,6.05,6.05,0,0,0,.91-.35,51,51,0,0,1,12.65-4.45A16.94,16.94,0,0,1,1107,660.06Zm-23.62-43.17a5.17,5.17,0,0,0,1.55,1.6A247.07,247.07,0,0,1,1104,640.65c-8.7-1.78-17.38-3.68-26-6q1.17-10.7,1.64-21.46C1080.92,614.43,1082.15,615.65,1083.36,616.89ZM1150,478.43a3.88,3.88,0,0,0-.19,1.61c-5,5.72-11.72,10.44-17.7,14.6a294.52,294.52,0,0,1-34.59,20.64l-4.06,1a5.91,5.91,0,0,0-.81-1.45c-.11-.83-.23-1.65-.35-2.47-2.93-43.78-12.58-87.19-32.76-126.39-22.6-43.9-58.17-81.14-103.76-101.12-48.08-21.08-101.19-22.52-151.13-7.3-27.11,8.26-53,20.14-78.75,31.77-26.75,12.06-53.42,24.31-80.44,35.76-15.52,6.58-31.17,12.88-47,18.73-15.07,5.58-30.4,10.44-45.38,16.25a282.55,282.55,0,0,0-40.77,20.2c-8,4.67-16.53,9.6-25.58,11.77Q541.87,382.48,598,354.8a3.77,3.77,0,0,0,2.92-.38l17.57-9.65q18.16-8.82,36.44-17.46c30-14.14,60-28.05,90.48-41.13,30-12.88,60.61-24.6,92.28-32.67,26.85-6.85,54.63-10.79,82.19-10.52a292,292,0,0,1,138.79,52.55c1,.7,1.94,1.39,2.91,2.11l.33.24q7.45,5.5,14.57,11.47c1.19,1,2.38,2,3.55,3,0,0,.08.05.11.08a312.75,312.75,0,0,1,24.56,23.62,347.83,347.83,0,0,1,26.18,36.48q5.39,8.61,10.3,17.53,4.33,8.81,8.49,17.7a3.3,3.3,0,0,0,.26.45,235.63,235.63,0,0,1,5.95,39.26A133.17,133.17,0,0,1,1150,478.43Z"/>
    </g>
  </g>
</svg>
