<svg xmlns="http://www.w3.org/2000/svg" width="170" height="170" viewBox="0 0 170 170">
  <defs>
    <style>
      .cls-1 {
        fill: #020202;
      }
    </style>
  </defs>
  <g id="chili">
    <g>
      <path class="cls-1" d="M21.3,151a53.34,53.34,0,0,1,15-33.94c2.36-2.42,5-4.4,7.56-6.61a17.82,17.82,0,0,0,5.42-9.07c1.56-5.65,3.14-10.83,6.21-15.8s7.36-9,13.32-9.89a2.88,2.88,0,0,0,2.09-2.09,47.16,47.16,0,0,1,17-27.73c2.69-2.13,5.93-4.37,9.42-4.82a10.52,10.52,0,0,1,8.14,2.73,30.93,30.93,0,0,1,6.39,8,64.38,64.38,0,0,1,5.22,10.52c1.37,3.67,2.39,7.73,1.67,11.66-1.18,6.49-6.31,10.63-12.07,13.68a72.2,72.2,0,0,1-9.13,4c-1.31.5-2.39,1.06-2.78,2.52-.23.85-.38,1.71-.64,2.56a19.52,19.52,0,0,1-1.9,4.25,23.83,23.83,0,0,1-15,11.12,17.81,17.81,0,0,1-4.61.52c-2.17,0-4.33-.06-6.35.88A9.61,9.61,0,0,0,62,118c-.9,1.74-1.81,3.48-2.81,5.16-7.77,13.11-20.71,24.51-36.76,24.24a29.22,29.22,0,0,1-5.6-.65,3.07,3.07,0,0,0-3.69,2.09,3,3,0,0,0,2.1,3.69c15.68,3.42,31.31-4.08,41.54-15.8a71.71,71.71,0,0,0,6.85-9.31c1-1.57,1.87-3.16,2.73-4.79.63-1.2,1.25-3.28,2.53-3.86s3.18-.2,4.57-.24a29,29,0,0,0,5.16-.68,28.17,28.17,0,0,0,9.23-4,28.92,28.92,0,0,0,12.69-18.36l-2.1,2.09c7.64-2.83,16-6.15,21.36-12.6a21.57,21.57,0,0,0,5.07-12.42c.37-5.33-1.34-10.54-3.46-15.35a65.75,65.75,0,0,0-6.77-12.09c-2.5-3.44-5.54-6.79-9.47-8.59a16.47,16.47,0,0,0-14,.19A40.66,40.66,0,0,0,79.7,45.11,53.16,53.16,0,0,0,65.07,72l2.09-2.09c-12.63,2-19.4,15-22.68,26.08-.88,3-1.26,6.42-3.43,8.79-2.37,2.57-5.41,4.48-7.93,6.92A58.36,58.36,0,0,0,21.2,128.22,59.66,59.66,0,0,0,15.3,151a3,3,0,0,0,6,0Z"/>
      <path class="cls-1" d="M116.56,50.36A45.21,45.21,0,0,0,122.36,9l-5.48,2.31a41.5,41.5,0,0,1,6.68,22.18,3,3,0,0,0,1.84,2.74,3.12,3.12,0,0,0,3.28-.62C134.49,31,143,24.88,150.14,30V24.82a62.75,62.75,0,0,0-18.32,15.25,3,3,0,0,0,4.24,4.24l.07-.06c.15-.11.31-.21.47-.31s1.1-.53.54-.31a8.16,8.16,0,0,1,1.06-.34c.13,0,1.23-.19.58-.13a7.67,7.67,0,0,1,3.83.45,6.65,6.65,0,0,1,1.48.72c.09.05,1,.67.56.33.29.23.57.49.84.75.07.08.79.9.44.45a7.09,7.09,0,0,1,.61.93c.09.17.17.33.25.5-.11-.29-.1-.27,0,.06a10.57,10.57,0,0,1,.31,1.1l2.89-3.8a52.43,52.43,0,0,0-35.51,12,3,3,0,0,0,0,4.24,3.08,3.08,0,0,0,4.25,0A46.22,46.22,0,0,1,150,50.65a3,3,0,0,0,2.89-3.79c-1-4.41-4.55-7.62-8.7-9a12.72,12.72,0,0,0-12.38,2.24l4.24,4.24A58.36,58.36,0,0,1,153.17,30c2.12-1.17,1.74-3.93,0-5.18-4.2-3-9.87-3.29-14.71-1.87-5.32,1.56-9.73,5-14,8.39l5.12,2.12a47.44,47.44,0,0,0-7.5-25.21A3,3,0,0,0,118.31,7a3,3,0,0,0-1.73,3.54,39.58,39.58,0,0,1-5.2,36.77,3,3,0,0,0,1.08,4.11,3.07,3.07,0,0,0,4.1-1.08Z"/>
    </g>
  </g>
</svg>
