<svg xmlns="http://www.w3.org/2000/svg" width="170" height="170" viewBox="0 0 170 170">
  <defs>
    <style>
      .cls-1 {
        fill: #020202;
      }
    </style>
  </defs>
  <g id="chili">
    <g>
      <g>
        <path class="cls-1" d="M13.09,120.71c-.81,6.16-.63,12.68,1.64,18.53A31.72,31.72,0,0,0,27,154.08c12.16,8.16,28,9.45,41.89,5.82A78.11,78.11,0,0,0,98,145.39c8-6.49,14.84-16.09,13.59-26.9a28.18,28.18,0,0,0-8.51-17c-4.86-4.72-11-7.94-17.26-10.33-1.47-.55-3-1.05-4.44-1.51-3.7-1.14-5.28,4.65-1.6,5.78C90.27,98.69,102,104.77,105,116c.17.61.31,1.23.42,1.85,0,.28.1.56.14.84-.08-.55,0,.28,0,.45a21.44,21.44,0,0,1,0,3.4c0,.27,0,.54-.08.8.06-.53,0,.05,0,.26-.1.61-.23,1.21-.38,1.81s-.28,1-.45,1.53q-.12.38-.27.75c0,.13-.09.25-.14.37s-.23.57-.1.26-.17.39-.23.5-.23.49-.35.73c-.26.52-.54,1-.84,1.54a29.84,29.84,0,0,1-2,3,2.69,2.69,0,0,1-.22.28l-.54.65c-.4.48-.81.94-1.23,1.4-.85.92-1.75,1.81-2.68,2.66s-1.87,1.64-2.84,2.41c-.18.15-.56.43-1.07.81s-1.07.77-1.61,1.14a71.37,71.37,0,0,1-6.65,4c-1.15.63-2.33,1.22-3.51,1.79-.54.25-1.08.51-1.63.75s-1.38.61-1.54.68c-1.8.75-4.39,1.71-6.56,2.4-11.54,3.65-24.56,4-35.66-1.37-5.4-2.6-10.2-6.29-13.09-11.27-2.67-4.61-3.48-9.73-3.25-15.23.07-1.52.21-3,.41-4.55s-1.53-3-3-3a3.08,3.08,0,0,0-3,3Z"/>
        <path class="cls-1" d="M30.73,89.79q-3.32,4.15-6.62,8.33a3.06,3.06,0,0,0-.62,3.28,3,3,0,0,0,2.74,1.84,50.7,50.7,0,0,0,24.71-7l-4.41-1.8,7.1,18.13a3.1,3.1,0,0,0,2.89,2.2,3.05,3.05,0,0,0,2.89-2.2c.62-2.25.93-4.58,1.48-6.85a34.34,34.34,0,0,1,1.17-3.86c.24-.66-.22.35.09-.2.15-.28.28-.57.44-.84s.31-.5.48-.74c-.45.64,0,0,.13-.1.47-.56-.39.23.06-.07.66-.45-.34,0,.11-.07s-.71.18,0,0h.29c-.36,0-.33,0,.11,0a34.94,34.94,0,0,1,5.2,2.2c4.28,2.15,8.81,3.84,13.22,5.69a3,3,0,0,0,3.39-1.38,3.06,3.06,0,0,0-.47-3.64A3.75,3.75,0,0,1,84,100.56a10.62,10.62,0,0,1,.11-1.89c0-.53,0,.18-.06.23.26-.67-.08.06,0-.1s.61-.9.19-.36c.23-.29.48-.57.72-.85a16.23,16.23,0,0,0,1.71-2.16,4.72,4.72,0,0,0-.8-6.05,10.61,10.61,0,0,0-3.28-1.84c-1.45-.63-2.83-1.4-4.32-2-2.44-.92-5-1.41-7.5-2.14-2-.58-4.48-1.38-5.86-3-.61-.75,0,0-.2-.38-.09-.16-.13-.78-.09-.18,0-.18,0-.34,0-.52,0,.7,0,0,.08-.17.28-.78.62-1.57.83-2.37a7.66,7.66,0,0,0-2-7.4c-2-2-4.64-2.63-7.32-2.9-1.1-.11-2.21-.15-3.31-.25,0,0-1-.13-.39,0L51.68,66l-.56-.14c-.12,0-1.13-.44-.62-.2A3,3,0,0,0,46,68.28c-.28,3.36,3.28,6,6.16,3.72a3.58,3.58,0,0,0,1-4.53c-.88-1.6-2.53-2-4.19-2.19a3,3,0,0,0-3,3c.1,1.51.32,3,.53,4.52,0,.37.06.4,0,.1,0,.19.05.39.07.58s.07.58.09.87a14,14,0,0,1,.07,1.83,7.69,7.69,0,0,1-.06.95c.07-.55,0,.05-.08.25a6.82,6.82,0,0,1-.23.77c.2-.57-.15.28-.22.4A7.63,7.63,0,0,1,43.38,81c-3.34,1.92-.33,7.11,3,5.18s5.84-4.89,6.28-8.92A18.08,18.08,0,0,0,52.56,73c-.12-.91-.26-1.83-.38-2.74.07.51-.07-.65-.08-.75-.05-.43-.08-.85-.11-1.27l-3,3c-.27,0-.25,0,.06,0A1.86,1.86,0,0,1,48,70.4,2.32,2.32,0,0,1,49,67a2.2,2.2,0,0,1,2.39.5,1.71,1.71,0,0,1,.6,1.3,4.89,4.89,0,0,1,0-.54l-4.51,2.59a18.09,18.09,0,0,0,6.66,1.44l1.5.11.75.07c.56.05-.69-.14.22,0a12.81,12.81,0,0,1,1.26.28c.22.07.45.14.66.23-.55-.23.24.16.28.18.73.41-.19-.21.19.11a5.11,5.11,0,0,1,.52.52c-.27-.31,0,.08.08.14.32.6.07-.15.2.54,0-.15-.14-.41,0,.12s.08-.18,0,.16a9.13,9.13,0,0,1-.41,1.35,8,8,0,0,0,0,6.63c1.26,2.68,4.31,4.36,6.94,5.46A60.92,60.92,0,0,0,73.6,90.4,49.49,49.49,0,0,1,81,93.33c.2.09.39.22.59.3l.25.16c-.25-.22-.26-.22,0,0l.07.07c.16.18.1.1-.18-.22,0-.06-.24-1-.23-.82,0,.41.13-.83,0-.25.17-.77.22-.39.08-.24a3.17,3.17,0,0,0-.32.49c.26-.4.19-.24-.06,0-1.45,1.64-2.8,3.19-3.06,5.44-.08.72.11-.93,0,.36a11.13,11.13,0,0,0-.11,1.53,10.43,10.43,0,0,0,.3,2.3A9.35,9.35,0,0,0,80.9,107l2.92-5c-3.63-1.52-7.36-2.91-10.9-4.64-2.94-1.43-6.23-3.58-9.62-3.52C58,93.94,56,100.18,55,104.41c-.51,2.18-.82,4.42-1.41,6.59h5.78L52.32,92.87a3,3,0,0,0-4.41-1.79,44.39,44.39,0,0,1-21.68,6.16l2.12,5.12Q31.65,98.19,35,94a3.09,3.09,0,0,0,0-4.24c-1-1.05-3.23-1.28-4.24,0Z"/>
        <path class="cls-1" d="M90.79,90.35l-1-12.59c-.35-4.22-.92-8.5-1-12.74-.07-3.66,2.87-6.3,4.83-9.14A83.3,83.3,0,0,0,99.3,46.3a88.8,88.8,0,0,0,5.08-12.23,3,3,0,1,0-5.78-1.59,80.55,80.55,0,0,1-9.93,20c-2.17,3.19-5.14,6.13-5.72,10.1a30.17,30.17,0,0,0,.13,6.78l.53,6.42,1.18,14.56a3.08,3.08,0,0,0,3,3,3,3,0,0,0,3-3Z"/>
        <path class="cls-1" d="M102,33.53l14.17-2.33a52.7,52.7,0,0,1,5.51-.8,8.33,8.33,0,0,1,1.92.08,6.29,6.29,0,0,1,.62.17c-.22-.11-.17-.08.15.08s.35.23.15.08c.23.27.29.31.15.13A3.1,3.1,0,0,0,128.8,32a3,3,0,0,0,1.07-4.11c-3.11-4.32-8.2-3.65-12.83-2.89l-16.61,2.72c-1.6.26-2.49,2.25-2.1,3.69a3.08,3.08,0,0,0,3.69,2.1Z"/>
        <path class="cls-1" d="M131.41,27.9c-2,.08-4.32.66-4.94,2.88a4.79,4.79,0,0,0,0,2.26,4.42,4.42,0,0,0,.13.61c0,.08.12.44,0,0-.13-.64,0,.46,0,.37a21.64,21.64,0,0,0,2.22,5.66c.77,1.6,1.63,3.16,2.53,4.69,3.53,6,8.08,11.74,10.12,18.38,1.16,3.74,1.24,7.58,1.56,11.55q.54,6.63.86,13.28.63,13.19.42,26.38c-.16,10.17-.69,20.32-1.5,30.45a3,3,0,0,0,3,3,3.06,3.06,0,0,0,3-3,448.65,448.65,0,0,0,1.32-51.07q-.43-12.82-1.68-25.62a34.38,34.38,0,0,0-2.73-10.6,67.81,67.81,0,0,0-4.92-8.91c-2.06-3.28-4.2-6.53-6-10-.46-.87-.89-1.76-1.3-2.65-.32-.71-.5-1.53-.87-2.21-.27-.5,0,.28-.1,0a6.25,6.25,0,0,1-.14-1,4.42,4.42,0,0,0-.14-.63c-.09-.28.1-.1,0,.06s0,.32,0,.09l-1.13,2c-.1.25-.46,0-.2.11.07,0,0,0,.43,0a3,3,0,0,0,0-6Z"/>
        <path class="cls-1" d="M90.19,146.56a14.55,14.55,0,0,0,7.71,8.65c4.59,2,9.36,1.16,14.08.1,7.33-1.66,15.15-1,22.69-2.56a21.08,21.08,0,0,0,11-5.76c2.68-2.78-1.55-7-4.24-4.24a14.43,14.43,0,0,1-7.3,4,47.31,47.31,0,0,1-9.29,1.12c-3.48.19-7,.36-10.41.88-3.81.57-7.71,2.19-11.61,1.73A8.38,8.38,0,0,1,96,145a3.07,3.07,0,0,0-3.69-2.1,3,3,0,0,0-2.1,3.69Z"/>
        <path class="cls-1" d="M96,16.18l-1.33,11.7a3,3,0,0,0,2.2,2.9,73,73,0,0,0,34.69-1.39,3,3,0,0,0,2.2-2.9l-.59-10.3a3.11,3.11,0,0,0-3-3,74.17,74.17,0,0,0-33.54,3.46,3.07,3.07,0,0,0-2.09,3.69,3,3,0,0,0,3.69,2.09,70.25,70.25,0,0,1,31.94-3.24l-3-3,.59,10.3L130,23.6A66.3,66.3,0,0,1,98.47,25l2.21,2.89L102,16.18c.18-1.61-1.51-3-3-3a3.07,3.07,0,0,0-3,3Z"/>
      </g>
      <path class="cls-1" d="M45,80.77c-14.17,6.12-29,15.65-32.32,31.92a27.51,27.51,0,0,0,.41,13.16c1.08,3.7,6.87,2.13,5.79-1.6-1.83-6.29-.38-13,2.91-18.62,3.52-6,9-10.57,15-14.09A100.49,100.49,0,0,1,48.07,86c1.49-.65,1.83-2.83,1.08-4.11A3.08,3.08,0,0,0,45,80.77Z"/>
    </g>
  </g>
</svg>
